<?xml version="1.0" encoding="utf-8"?>
<!-- Generator: Adobe Illustrator 25.4.1, SVG Export Plug-In . SVG Version: 6.00 Build 0)  -->
<svg version="1.1" id="Layer_1" xmlns="http://www.w3.org/2000/svg" xmlns:xlink="http://www.w3.org/1999/xlink" x="0px" y="0px"
	 viewBox="0 0 70 80" style="enable-background:new 0 0 70 80;" xml:space="preserve">
<style type="text/css">
	.st0{fill:#107C10;}
	.st1{fill:#FFFFFF;}
</style>
<rect x="0" y="0" class="st0" width="70" height="80"/>
<path class="st1" d="M70,80h-5c0-2.7-0.3-5.4-1.1-8c-0.7-2.6-1.7-4.9-3-7.2c-1.3-2.2-2.9-4.3-4.7-6.1c-1.8-1.8-3.8-3.4-6-4.7
	s-4.6-2.3-7.2-3c-2.6-0.7-5.2-1.1-8-1.1s-5.4,0.3-8,1.1c-2.6,0.8-5,1.8-7.2,3.1s-4.3,2.9-6.1,4.7c-1.8,1.8-3.4,3.8-4.7,6.1
	S6.8,69.5,6,72c-0.7,2.6-1.1,5.2-1.1,8H0c0-3.8,0.6-7.4,1.6-10.8c1.1-3.4,2.7-6.6,4.7-9.4c2.1-2.9,4.5-5.4,7.3-7.6s6-3.9,9.5-5.3
	c-3.2-1.7-5.9-4.1-8.2-7.1h-2.5c-1.1,0-2-0.2-2.9-0.6c-0.9-0.4-1.7-1-2.4-1.6s-1.2-1.5-1.6-2.4c-0.4-0.9-0.6-1.9-0.6-2.9v-9.9
	c0-1,0.2-1.9,0.6-2.8C5.9,18.8,6.3,18,7,17.4c0.7-0.7,1.4-1.2,2.2-1.6c0.9-0.4,1.8-0.7,2.8-0.7c1-2.3,2.3-4.4,3.9-6.2
	c1.6-1.8,3.4-3.4,5.4-4.7s4.1-2.3,6.5-3S32.5,0,35,0s4.9,0.3,7.2,1.1c2.3,0.7,4.5,1.7,6.4,3s3.8,2.9,5.4,4.7
	c1.6,1.8,2.9,3.9,3.9,6.2c1,0.1,1.9,0.3,2.8,0.7c0.8,0.4,1.6,1,2.2,1.6c0.6,0.7,1.1,1.5,1.5,2.4c0.4,0.9,0.6,1.8,0.6,2.8v10
	c0,1.1-0.2,2-0.6,2.9s-1,1.7-1.6,2.4c-0.7,0.7-1.5,1.2-2.4,1.6c-0.9,0.4-1.9,0.6-2.9,0.6c-0.8,0-1.5-0.1-2.2-0.3
	c-1.1,1.5-2.4,2.9-3.8,4.2c-1.4,1.3-3,2.3-4.7,3.2c3.5,1.3,6.7,3.1,9.5,5.2c2.9,2.2,5.3,4.6,7.3,7.6c2.1,2.9,3.6,6,4.7,9.4
	C69.4,72.7,69.9,76.2,70,80z M60,22.5c0-0.7-0.2-1.3-0.7-1.7c-0.5-0.5-1.1-0.7-1.7-0.7c-0.7,0-1.3,0.2-1.7,0.7
	c-0.5,0.5-0.7,1.1-0.7,1.7v10c0,0.7,0.2,1.3,0.7,1.7c0.5,0.4,1.1,0.7,1.7,0.7c0.7,0,1.3-0.2,1.7-0.7s0.7-1.1,0.7-1.7V22.5z M10,32.5
	c0,0.7,0.2,1.3,0.7,1.7c0.5,0.4,1.1,0.7,1.7,0.7H15V22.5c0-0.7-0.2-1.3-0.7-1.7c-0.5-0.5-1.1-0.7-1.7-0.7c-0.7,0-1.3,0.2-1.7,0.7
	c-0.5,0.5-0.7,1.1-0.7,1.7L10,32.5L10,32.5z M21.8,40c1.8,1.6,3.9,2.9,6.2,3.7c2.2,0.8,4.6,1.3,7.1,1.3c1.6,0,3.2-0.2,4.7-0.6
	c1.5-0.4,3-0.9,4.4-1.6c1.4-0.7,2.7-1.6,3.9-2.6c1.2-1,2.3-2.2,3.2-3.5c-0.4-0.6-0.7-1.2-1-2S50,33.2,50,32.5v-10
	c0-1.2,0.3-2.4,0.8-3.4c0.5-1.1,1.3-2,2.3-2.6c-0.8-1.7-1.8-3.3-3.1-4.7c-1.2-1.4-2.7-2.6-4.3-3.6s-3.2-1.8-5.1-2.4
	C38.8,5.3,36.9,5,35,5s-3.8,0.3-5.6,0.8c-1.8,0.5-3.5,1.3-5.1,2.3s-3,2.2-4.2,3.6s-2.3,3-3.2,4.7c1,0.7,1.7,1.6,2.2,2.6
	c0.5,1.1,0.8,2.2,0.8,3.4V35h5c0-0.7,0.1-1.3,0.4-2c0.3-0.6,0.6-1.1,1.1-1.6c0.4-0.4,1-0.8,1.6-1.1c0.6-0.3,1.3-0.4,2-0.4
	c0.7,0,1.3,0.1,2,0.4c0.6,0.3,1.1,0.6,1.6,1.1c0.4,0.4,0.8,1,1.1,1.6c0.3,0.6,0.4,1.3,0.4,2c0,0.7-0.1,1.3-0.4,2S34,38,33.6,38.5
	c-0.4,0.4-1,0.8-1.6,1.1c-0.6,0.3-1.3,0.4-2,0.4H21.8z"/>
</svg>
