<svg width="60" height="60" viewBox="0 0 60 60" fill="none" xmlns="http://www.w3.org/2000/svg">
<path d="M41.625 50.4976V51.2226C37.7498 53.7136 33.2345 55.0255 28.6277 54.9989C24.021 54.9723 19.5212 53.6083 15.675 51.0726V50.4976C15.675 44.6726 21.5 39.9226 28.65 39.9226C35.825 39.9226 41.625 44.6726 41.625 50.4976Z" fill="black"/>
<path opacity="0.4" d="M52.5 31.25C52.5 39.625 48.175 46.975 41.625 51.225V50.5C41.625 44.675 35.825 39.925 28.65 39.925C21.5 39.925 15.675 44.675 15.675 50.5V51.075C12.3924 48.9137 9.69826 45.9705 7.83493 42.51C5.97159 39.0496 4.99742 35.1803 5.00001 31.25C5.00001 18.125 15.625 7.5 28.75 7.5C32.025 7.5 35.15 8.15 38 9.35C37.675 10.35 37.5 11.4 37.5 12.5C37.5 14.375 38.025 16.15 38.95 17.65C39.45 18.5 40.1 19.275 40.85 19.925C42.6 21.525 44.925 22.5 47.5 22.5C48.6 22.5 49.65 22.325 50.625 21.975C51.825 24.825 52.5 27.975 52.5 31.25Z" fill="black"/>
<circle cx="28.5" cy="29.5" r="7.5" fill="black"/>
</svg>
